PathFileType	4	(X/Y/Z)	RBDS025static.trc
DataRate	CameraRate	NumFrames	NumMarkers	Units	OrigDataRate	OrigDataStartFrame	OrigNumFrames
150.000000	150.000000	4	48	mm	150.000000	0	150
Frame#	Time	L.Ankle			L.Ankle.Medial			L.ASIS			L.GTR			L.Heel.Bottom			L.Heel.Lateral			L.Heel.Top			L.HF			L.Iliac.Crest			L.Knee			L.Knee.Medial			L.MT1			L.MT2			L.MT5			L.PSIS			L.Shank.Bottom.Lateral			L.Shank.Bottom.Medial			L.Shank.Top.Lateral			L.Shank.Top.Medial			L.Thigh.Bottom.Lateral			L.Thigh.Bottom.Medial			L.Thigh.Top.Lateral			L.Thigh.Top.Medial			L.TT			R.Ankle			R.Ankle.Medial			R.ASIS			R.GTR			R.Heel.Bottom			R.Heel.Lateral			R.Heel.Top			R.HF			R.Iliac.Crest			R.Knee			R.Knee.Medial			R.MT1			R.MT2			R.MT5			R.PSIS			R.Shank.Bottom.Lateral			R.Shank.Bottom.Medial			R.Shank.Top.Lateral			R.Shank.Top.Medial			R.Thigh.Bottom.Lateral			R.Thigh.Bottom.Medial			R.Thigh.Top.Lateral			R.Thigh.Top.Medial			R.TT			
		X1	Y1	Z1	X2	Y2	Z2	X3	Y3	Z3	X4	Y4	Z4	X5	Y5	Z5	X6	Y6	Z6	X7	Y7	Z7	X8	Y8	Z8	X9	Y9	Z9	X10	Y10	Z10	X11	Y11	Z11	X12	Y12	Z12	X13	Y13	Z13	X14	Y14	Z14	X15	Y15	Z15	X16	Y16	Z16	X17	Y17	Z17	X18	Y18	Z18	X19	Y19	Z19	X20	Y20	Z20	X21	Y21	Z21	X22	Y22	Z22	X23	Y23	Z23	X24	Y24	Z24	X25	Y25	Z25	X26	Y26	Z26	X27	Y27	Z27	X28	Y28	Z28	X29	Y29	Z29	X30	Y30	Z30	X31	Y31	Z31	X32	Y32	Z32	X33	Y33	Z33	X34	Y34	Z34	X35	Y35	Z35	X36	Y36	Z36	X37	Y37	Z37	X38	Y38	Z38	X39	Y39	Z39	X40	Y40	Z40	X41	Y41	Z41	X42	Y42	Z42	X43	Y43	Z43	X44	Y44	Z44	X45	Y45	Z45	X46	Y46	Z46	X47	Y47	Z47	X48	Y48	Z48	

1	0	697.9602661132813	100.3078002929688	1055.566040039063	735.531982421875	114.4980163574219	1130.620971679688	842.8383178710938	968.0906372070313	1126.635986328125	757.3682861328125	889.1862182617188	1069.0478515625	638.4091186523438	40.77931594848633	1097.110595703125	663.9819946289063	62.08372497558594	1052.9521484375	647.9949951171875	84.94558715820313	1097.081298828125	714.095458984375	450.5556945800781	1044.220092773438	760.065673828125	1033.44482421875	1074.490234375	730.9325561523438	515.239013671875	1053.73779296875	728.347412109375	494.0191955566406	1174.454956054688	846.7830810546875	56.07400894165039	1130.18408203125	859.2267456054688	68.93336486816406	1083.583129882813	818.0103759765625	49.94013595581055	1018.21240234375	676.3159790039063	1012.060241699219	1178.9609375	712.2847900390625	197.9755401611328	1042.812866210938	665.266357421875	198.9347076416016	1073.27783203125	706.4556274414063	277.7116088867188	1033.1484375	660.4634399414063	279.2839050292969	1061.514526367188	736.084716796875	631.5889282226563	1043.79833984375	677.337158203125	626.1880493164063	1086.597900390625	726.9459228515625	740.5420532226563	1046.136474609375	674.556640625	735.3816528320313	1092.18701171875	773.26806640625	419.181640625	1088.066040039063	697.7177734375	103.0099792480469	1409.109985351563	732.0236206054688	118.8155364990234	1330.411010742188	848.0706787109375	982.8531494140625	1335.57080078125	770.8273315429688	898.0924682617188	1403.144165039063	635.2667846679688	40.85353088378906	1366.237670898438	661.6763916015625	62.4495964050293	1407.28564453125	643.4140625	85.24453735351563	1366.541870117188	730.4735717773438	456.3540954589844	1425.645874023438	781.3017578125	1042.698120117188	1374.341674804688	737.6865844726563	522.0101318359375	1417.097045898438	734.251953125	503.5000915527344	1295.304931640625	846.3883056640625	57.17939758300781	1329.447143554688	857.3732299804688	69.39827728271484	1372.62060546875	818.358642578125	47.43586349487305	1440.677856445313	679.9617919921875	1018.960083007813	1277.053955078125	703.2237548828125	202.7327270507813	1422.919799804688	662.3076171875	205.7876892089844	1392.066650390625	698.7359008789063	286.931396484375	1434.170776367188	656.4592895507813	285.8944091796875	1401.74560546875	735.5746459960938	627.9208984375	1424.064819335938	676.6589965820313	627.5314331054688	1383.044067382813	732.1592407226563	738.6588745117188	1425.254028320313	676.4212036132813	737.6796264648438	1385.318359375	779.931640625	431.5637817382813	1373.1806640625	
2	0.006666666666666667	697.9600219726563	100.3005599975586	1055.567749023438	735.5374145507813	114.5082778930664	1130.627075195313	842.8335571289063	968.0880737304688	1126.614135742188	757.3870239257813	889.189208984375	1069.038696289063	638.4102783203125	40.77361679077148	1097.12109375	663.9937744140625	62.07423400878906	1052.949951171875	647.989990234375	84.95832824707031	1097.08447265625	714.083984375	450.5576782226563	1044.21044921875	760.0762329101563	1033.448486328125	1074.492553710938	730.9362182617188	515.2440185546875	1053.727416992188	728.3613891601563	494.0341796875	1174.463623046875	846.7862548828125	56.08180618286133	1130.184448242188	859.2319946289063	68.94454956054688	1083.585815429688	818.0091552734375	49.9424934387207	1018.213806152344	676.3116455078125	1012.05810546875	1178.95556640625	712.2864379882813	197.9778900146484	1042.813110351563	665.2655029296875	198.9316253662109	1073.27880859375	706.454833984375	277.7179565429688	1033.151977539063	660.4661254882813	279.2821044921875	1061.510620117188	736.0835571289063	631.5945434570313	1043.791625976563	677.4544067382813	626.07177734375	1086.63427734375	726.9507446289063	740.5368041992188	1046.127563476563	674.5646362304688	735.38916015625	1092.180786132813	773.2765502929688	419.1863098144531	1088.049926757813	697.7086181640625	103.0178527832031	1409.1044921875	732.0347900390625	118.8142242431641	1330.417236328125	848.0704345703125	982.8549194335938	1335.562133789063	770.83349609375	898.0909423828125	1403.1357421875	635.2744140625	40.85728073120117	1366.247314453125	661.6721801757813	62.4517822265625	1407.283569335938	643.4175415039063	85.23680114746094	1366.542236328125	730.4782104492188	456.3609313964844	1425.642700195313	781.3015747070313	1042.697143554688	1374.332763671875	737.6820068359375	522.0238647460938	1417.10107421875	734.2529907226563	503.4978637695313	1295.295532226563	846.3971557617188	57.16028213500977	1329.448364257813	857.3735961914063	69.40203857421875	1372.610107421875	818.3655395507813	47.4406623840332	1440.678344726563	679.9716186523438	1018.953247070313	1277.036376953125	703.226806640625	202.7331695556641	1422.921020507813	662.3113403320313	205.7918853759766	1392.0615234375	698.7396240234375	286.9410095214844	1434.17138671875	656.4717407226563	285.89306640625	1401.735473632813	735.56591796875	627.9246215820313	1424.053833007813	676.6596069335938	627.5402221679688	1383.024658203125	732.1599731445313	738.6536254882813	1425.24853515625	676.4234619140625	737.683349609375	1385.302368164063	779.9412841796875	431.5720520019531	1373.180786132813	
3	0.01333333333333333	697.964111328125	100.3016052246094	1055.564208984375	735.5291748046875	114.4997406005859	1130.622680664063	842.8516235351563	968.0950927734375	1126.608520507813	757.3963012695313	889.185546875	1069.03515625	638.4136352539063	40.76271438598633	1097.12109375	663.9935302734375	62.08177185058594	1052.953247070313	647.98974609375	84.95198822021484	1097.078002929688	714.0995483398438	450.560546875	1044.199340820313	760.0848388671875	1033.440063476563	1074.481811523438	730.9420776367188	515.2360229492188	1053.725952148438	728.3682861328125	494.0269775390625	1174.451049804688	846.7943115234375	56.0827751159668	1130.187255859375	859.234130859375	68.94350433349609	1083.59228515625	818.00634765625	49.93231964111328	1018.219787597656	676.326171875	1012.05126953125	1178.9345703125	712.285400390625	197.9754638671875	1042.816528320313	665.2630615234375	198.9293823242188	1073.27880859375	706.4603881835938	277.7068176269531	1033.149169921875	660.4671630859375	279.2815246582031	1061.509155273438	736.0855712890625	631.5745239257813	1043.785034179688	677.3556518554688	626.1912231445313	1086.596557617188	726.9616088867188	740.5353393554688	1046.10986328125	674.57666015625	735.3820190429688	1092.169189453125	773.2876586914063	419.1795959472656	1088.0419921875	697.718994140625	103.0152740478516	1409.113891601563	732.0238037109375	118.8110122680664	1330.4091796875	848.0750122070313	982.8546142578125	1335.546875	770.8323364257813	898.095458984375	1403.123901367188	635.2728271484375	40.85086822509766	1366.241943359375	661.6817016601563	62.44855117797852	1407.2861328125	643.421875	85.23365783691406	1366.5322265625	730.4793090820313	456.3603515625	1425.638305664063	781.30224609375	1042.692993164063	1374.317504882813	737.6787109375	522.0274658203125	1417.0908203125	734.2632446289063	503.5021057128906	1295.293701171875	846.4027099609375	57.15237808227539	1329.465698242188	857.371337890625	69.40304565429688	1372.626831054688	818.36181640625	47.43913650512695	1440.68994140625	679.9784545898438	1018.951843261719	1277.0234375	703.2330932617188	202.7337341308594	1422.925659179688	662.3229370117188	205.7868804931641	1392.0576171875	698.7435302734375	286.9365844726563	1434.171630859375	656.4788208007813	285.8914794921875	1401.73828125	735.5667724609375	627.9168701171875	1424.041625976563	676.6676635742188	627.5335083007813	1383.008666992188	732.1630249023438	738.652099609375	1425.245239257813	676.4319458007813	737.673095703125	1385.295654296875	779.9432983398438	431.5667114257813	1373.163696289063	
4	0.02	697.9523315429688	100.2984161376953	1055.560913085938	735.5278930664063	114.493049621582	1130.624633789063	842.8547973632813	968.0885009765625	1126.596801757813	757.4155883789063	889.1802978515625	1069.018920898438	638.4058227539063	40.76646041870117	1097.120361328125	663.9906005859375	62.07290649414063	1052.952514648438	647.9950561523438	84.94409942626953	1097.083740234375	714.08935546875	450.538818359375	1044.19287109375	760.0968627929688	1033.431884765625	1074.473754882813	730.9386596679688	515.2484130859375	1053.718627929688	728.3887329101563	494.0366821289063	1174.441650390625	846.7853393554688	56.08805465698242	1130.188232421875	859.227783203125	68.93870544433594	1083.591430664063	818.0073852539063	49.93154907226563	1018.212280273438	676.3380737304688	1012.045837402344	1178.9306640625	712.2807006835938	197.9687347412109	1042.809814453125	665.2661743164063	198.9329528808594	1073.274047851563	706.4607543945313	277.7049865722656	1033.1533203125	660.479736328125	279.2815551757813	1061.511596679688	736.0927734375	631.583740234375	1043.778442382813	677.3640747070313	626.1905517578125	1086.591064453125	726.9680786132813	740.5234985351563	1046.1064453125	674.5825805664063	735.3849487304688	1092.166625976563	773.2826538085938	419.1807250976563	1088.036743164063	697.7169189453125	103.1510314941406	1409.458129882813	732.010009765625	118.8115463256836	1330.410888671875	848.0863647460938	982.86328125	1335.529052734375	770.8433227539063	898.0797729492188	1403.105102539063	635.2703247070313	40.85500335693359	1366.248657226563	661.6840209960938	62.44091796875	1407.281982421875	643.4203491210938	85.23382568359375	1366.539794921875	730.4756469726563	456.3685302734375	1425.62841796875	781.30224609375	1042.6884765625	1374.317138671875	737.69189453125	522.0245971679688	1417.079223632813	734.2423095703125	503.50390625	1295.271850585938	846.3958740234375	57.16794586181641	1329.462158203125	857.3702392578125	69.39846038818359	1372.619262695313	818.3562622070313	47.43823623657227	1440.686401367188	679.9822387695313	1018.946350097656	1277.0205078125	703.2191162109375	202.7380065917969	1422.916625976563	662.3145141601563	205.7841491699219	1392.051513671875	698.7438354492188	286.932373046875	1434.1640625	656.4780883789063	285.8849487304688	1401.723754882813	735.5739135742188	627.915283203125	1424.035766601563	676.6773681640625	627.5366821289063	1383.00341796875	732.159912109375	738.6499633789063	1425.235595703125	676.4385375976563	737.6739501953125	1385.276489257813	779.9363403320313	431.5775756835938	1373.168579101563	
